<?xml version="1.0" encoding="utf-8"?>
<!-- Generator: Adobe Illustrator 21.1.0, SVG Export Plug-In . SVG Version: 6.00 Build 0)  -->
<svg version="1.1" id="Layer_1" xmlns="http://www.w3.org/2000/svg" xmlns:xlink="http://www.w3.org/1999/xlink" x="0px" y="0px"
	 viewBox="0 0 339.6 348.6" style="enable-background:new 0 0 339.6 348.6;" xml:space="preserve">
<path d="M330.6,305c-78.2,18.7-165.2-14.8-259.6-91.5c87.9,64.1,174.7,101.8,259.6,85.7c9.4-10.1,12.4-19.2,4.5-26.6
	c-5.4-3.5-11.1-11.7-16.9-24.7c-2.9-35.6-9.2-67.2-25.3-87.6c-9.8-1-21.7-4.6-27.4-11.8c-4.6-5.8-6.3-6-9.6,1
	c-1.6,3.3-5.9,4.2-10.4,4.3c-21.5,1.8-42.8,3-63.6,1.3c-16.2-24.6-19.5-56.7-15.8-92.8c43.3,57.5,116.7,75.9,146.8,34.8
	c0.5-0.7,0.9-1.5,1.3-2.3c11.7-31.1,2.5-50.7-16.7-64.9c8.3,33.8,4.9,53.3-16.2,51.3c-30,0.6-67-81.1-121.3-81.1
	c-26.2,5.7-23,123.1-5.2,149.9l-63.6-12.3L78.8,53.5C66.2,1.9,13.3,10.1,0.9,48.9c-0.9,2.8-1.1,5.8-0.6,8.6
	c5.2,32,21,54.9,46.1,69.6c-26.9,9.1-38,25.7-40,46.6c-0.2,1.7,0,3.4,0.4,5.1l18.9,73.6c29.5,69.9,80.8,98.2,148,96
	c73-1.7,110.6-8.9,118.1-20.8C322.1,326.9,334.5,319.1,330.6,305z"/>
</svg>
