<?xml version="1.0" encoding="utf-8"?>
<!-- Generator: Adobe Illustrator 21.1.0, SVG Export Plug-In . SVG Version: 6.00 Build 0)  -->
<svg version="1.1" id="Layer_1" xmlns="http://www.w3.org/2000/svg" xmlns:xlink="http://www.w3.org/1999/xlink" x="0px" y="0px"
	 viewBox="0 0 405.5 529.5" style="enable-background:new 0 0 405.5 529.5;" xml:space="preserve">
<style type="text/css">
	.st0{stroke:#000000;stroke-width:4;stroke-miterlimit:10;}
</style>
<path class="st0" d="M382.9,289.2l-9.6-24.4l0.8-45.5l13.8-31.7l-8.1-55.9L321.7,26.4L244.5,2.2l-6.9,3.5L169,6.2l-6.9-4L84.4,26.4
	L25.6,134.1l-7.5,51.3l13.2,30l1.7,45.9l-8.6,25L2,310.3l0,53.6c11.3,9.9,22.6,18.9,34.6,19.6l-3.5,6.9l4.6,21.9l6.3,4.6l2.9,9.2
	l8.6,4l-0.6,5.8l24.2,37.4c30.3,8.7,57.3,26.6,80.6,54.1h87c19.5-25.3,46.9-41.9,78.9-53.6l25.3-36.9l-3.5-2.3v-4.6l11.5-5.8
	l2.9-9.2l5.8-1.2l5.2-26.5l-7.5-4.6c8.6-1.1,18.1-3.7,30.5-15l7.5-4.6v-53L382.9,289.2z M19.3,362.8c-6,0-10.8-4.8-10.8-10.8
	s4.8-10.8,10.8-10.8S30.1,346,30.1,352S25.3,362.8,19.3,362.8z M19.3,336.9c-6,0-10.8-4.8-10.8-10.8s4.8-10.8,10.8-10.8
	s10.8,4.8,10.8,10.8S25.3,336.9,19.3,336.9z M124.1,221.3l62.8,7.9h31.8l61.3-7.9h32.4v7.1l-6.8,0.7l-8.6,32.5l-7.9,3.2l-30.3,34.1
	l-18.2-10.6l-10.9,5.7h-52.7l-11.3-4.9l-19.7,9.8l-29.5-32.2l-8.3-1.9l-6.7-35.6l-7.3-0.3l-0.1-7.6H124.1z M332.2,292.1l-15.9,25.7
	l-21.2,23.5l-2.6,8.3l-30.3,13.2l-26.1-19.3l-67,0.4L143,362.8l-31-14.8l-6.4-11l-14-14l-18.2-33.7l-10.2-52.6l4.9-5.7v-9.8h22.9
	v8.8l8.1,0.9l7.4,40.5l11.6,3.5l24.4,35.5l13.7,9.9l13.7-14.1h66l14.1,14l11.6-11l26.6-33.9l10.3-4.7l9.1-38.7l7.7-1.6v-9h21.7
	l2.6,7.9l5.3,7.2L332.2,292.1z M388.6,362.8c-6,0-10.8-4.8-10.8-10.8s4.8-10.8,10.8-10.8c6,0,10.8,4.8,10.8,10.8
	S394.6,362.8,388.6,362.8z M388.6,336.9c-6,0-10.8-4.8-10.8-10.8s4.8-10.8,10.8-10.8c6,0,10.8,4.8,10.8,10.8
	S394.6,336.9,388.6,336.9z"/>
</svg>
