<?xml version="1.0" encoding="utf-8"?>
<!-- Generator: Adobe Illustrator 21.1.0, SVG Export Plug-In . SVG Version: 6.00 Build 0)  -->
<svg version="1.1" id="Layer_1" xmlns="http://www.w3.org/2000/svg" xmlns:xlink="http://www.w3.org/1999/xlink" x="0px" y="0px"
	 viewBox="0 0 443.1 520.4" style="enable-background:new 0 0 443.1 520.4;" xml:space="preserve">
<style type="text/css">
	.st0{stroke:#000000;stroke-width:4;stroke-miterlimit:10;}
</style>
<path class="st0" d="M381.3,99c1.8-16.1,1.7-30.6-5-40.1c-18.5-0.8-38.2,8.3-57.8,17.5c-4.5,2.1-9.9,0.1-12-4.4
	c-2.4-5.3-4.7-11-6.8-17.3c-22.5-66.2-116.5-74.3-154.6,0c-2.6,6.5-4.7,12.1-6.7,17.1c-1.8,4.6-6.9,6.9-11.6,5.2
	c-25.8-9.7-51.2-19.2-63-19.1c-5.6,8.3-5.4,25-4.5,42.6c-62.2,46.7-72.7,109-36.6,185.2l30.1-18.2c-34.2,101.7-27.2,183.2,11,249.3
	l102.8-132.9l53.2,2c11.8-0.4,33.5-1.2,55.7-2l101.3,132.9c39.3-61.8,46.3-143.1,12-249.3l29.1,17.6C454,216.5,452.5,153.1,381.3,99
	z M309.3,315.7c-29.9,16.7-59.7,14.6-89.4-1.5c-29.4,14.7-59,18.6-89,3.8c-63.9-110.9,2.6-184.8,48.5-62.3
	c-9.5,24.8-4.4,62.3,5.7,62.3c7.1,0,9-15.2,8.8-32.1c18.2,20.1,38.4,20.7,55.8-0.4c1.4,12,2.3,32.4,8,32.5
	c10.4,0,17.4-35.9,5.3-62.3C312.1,124.7,377.5,219.5,309.3,315.7z"/>
</svg>
