<?xml version="1.0" encoding="utf-8"?>
<!-- Generator: Adobe Illustrator 21.1.0, SVG Export Plug-In . SVG Version: 6.00 Build 0)  -->
<svg version="1.1" id="Layer_1" xmlns="http://www.w3.org/2000/svg" xmlns:xlink="http://www.w3.org/1999/xlink" x="0px" y="0px"
	 viewBox="0 0 470.3 569.4" style="enable-background:new 0 0 470.3 569.4;" xml:space="preserve">
<path d="M470.3,352.2l-21.8-106.5l-25.8-34.5l40.5-69.2L403,0l-113,92l-16.5-20.5h-38.3h-38.3L180.3,92L67.3,0L7.1,142l40.5,69.2
	l-25.8,34.5L0,352.2l37.7,25.6l-14.2,58.5l92.8,59l55.5,61.8l13.9-0.6l15.8,11.5l33.6,1.5l33.6-1.5l15.8-11.5l13.9,0.6l55.5-61.8
	l92.8-59l-14.2-58.5L470.3,352.2z M371.7,71.5l-34,92.1l25.9,36.9l-51.5-36.5L371.7,71.5z M268.9,91.7l5.3,65.7l-10.6-40.7
	L268.9,91.7z M259.6,209l-25,88.2L209.8,209l25.3,63.9L259.6,209z M200.6,91.7l5,25.2l-11,40.5L200.6,91.7z M157.3,163.9l-51.5,36.5
	l25.9-36.9l-34-92.1L157.3,163.9z M174.9,345.8c0,9.4-7.6,17.3-17.1,17.3s-17.1-7.6-17.1-17.1c0-5,2.2-9.5,5.6-12.6l-20.5-8.8
	l-20.1,19l9-39.5l109,62.9l-108.9-63.3l-11.3-7.9l-8.8-43.2L223.8,367L174.9,345.8C174.9,345.8,174.9,345.8,174.9,345.8z M235.1,551
	l-36.6-38.1l36.6-23.2l33.9,23.2L235.1,551z M365.6,295.8l-11.3,7.9L245.4,367l109-62.9l9,39.5l-20.1-19l-20.5,8.8
	c3.4,3.1,5.6,7.6,5.6,12.6c0,9.4-7.6,17.1-17.1,17.1s-17.1-7.9-17.1-17.3c0,0,0,0,0.1-0.1l-49,21.2l129.1-114.3L365.6,295.8z"/>
</svg>
